<svg viewBox="0 0 1440 500" xmlns="http://www.w3.org/2000/svg"><g><defs><linearGradient id="gradient0"><stop offset="5%" stop-color="#002bdc" stop-opacity="0.3333333333333333"></stop><stop offset="95%" stop-color="#32ded4" stop-opacity="0.3333333333333333"></stop></linearGradient></defs><path d="M 0,500 C 0,500 0,125 0,125 C 73.76923076923075,146.13333333333333 147.5384615384615,167.26666666666668 241,166 C 334.4615384615385,164.73333333333332 447.61538461538464,141.06666666666666 524,128 C 600.3846153846154,114.93333333333334 640,112.46666666666668 701,119 C 762,125.53333333333332 844.3846153846154,141.06666666666666 923,147 C 1001.6153846153846,152.93333333333334 1076.4615384615386,149.26666666666668 1162,144 C 1247.5384615384614,138.73333333333332 1343.7692307692307,131.86666666666667 1440,125 C 1440,125 1440,500 1440,500 Z" stroke="none" stroke-width="0" fill="url(#gradient0)" class="transition-all duration-500 ease-in-out delay-150"></path></g><g><defs><linearGradient id="gradient1"><stop offset="5%" stop-color="#002bdc" stop-opacity="0.6666666666666666"></stop><stop offset="95%" stop-color="#32ded4" stop-opacity="0.6666666666666666"></stop></linearGradient></defs><path d="M 0,500 C 0,500 0,250 0,250 C 87.01282051282053,262.13076923076926 174.02564102564105,274.26153846153846 252,281 C 329.97435897435895,287.73846153846154 398.91025641025635,289.0846153846154 486,280 C 573.0897435897436,270.9153846153846 678.3333333333333,251.4 749,235 C 819.6666666666667,218.6 855.7564102564103,205.3153846153846 939,212 C 1022.2435897435897,218.6846153846154 1152.6410256410256,245.33846153846156 1244,255 C 1335.3589743589744,264.66153846153844 1387.6794871794873,257.3307692307692 1440,250 C 1440,250 1440,500 1440,500 Z" stroke="none" stroke-width="0" fill="url(#gradient1)" class="transition-all duration-500 ease-in-out delay-150"></path></g><g><defs><linearGradient id="gradient2"><stop offset="5%" stop-color="#002bdc" stop-opacity="1"></stop><stop offset="95%" stop-color="#32ded4" stop-opacity="1"></stop></linearGradient></defs><path d="M 0,500 C 0,500 0,375 0,375 C 63.607692307692304,367.94615384615383 127.21538461538461,360.8923076923077 212,367 C 296.7846153846154,373.1076923076923 402.7461538461539,392.3769230769231 490,396 C 577.2538461538461,399.6230769230769 645.8,387.6 723,375 C 800.2,362.4 886.0538461538463,349.22307692307686 975,357 C 1063.9461538461537,364.77692307692314 1155.9846153846154,393.5076923076923 1234,400 C 1312.0153846153846,406.4923076923077 1376.0076923076922,390.74615384615385 1440,375 C 1440,375 1440,500 1440,500 Z" stroke="none" stroke-width="0" fill="url(#gradient2)" class="transition-all duration-500 ease-in-out delay-150"></path></g></svg>