<svg viewBox="0 0 1440 500" xmlns="http://www.w3.org/2000/svg"><g><defs><linearGradient id="_4tjbq8bv4"><stop offset="5%" stop-color="#d9ff00" stop-opacity="0.3333333333333333"></stop><stop offset="95%" stop-color="#32ded4" stop-opacity="0.3333333333333333"></stop></linearGradient></defs><path d="M 0,500 C 0,500 0,125 0,125 C 62.11282051282049,137.45384615384614 124.22564102564098,149.90769230769232 211,161 C 297.774358974359,172.09230769230768 409.2102564102564,181.8230769230769 507,167 C 604.7897435897436,152.1769230769231 688.9333333333333,112.80000000000001 756,112 C 823.0666666666667,111.19999999999999 873.0564102564101,148.97692307692307 951,146 C 1028.9435897435899,143.02307692307693 1134.8410256410257,99.29230769230769 1221,89 C 1307.1589743589743,78.70769230769231 1373.5794871794872,101.85384615384615 1440,125 C 1440,125 1440,500 1440,500 Z" stroke="none" stroke-width="0" fill="url(#_4tjbq8bv4)" class="transition-all duration-500 ease-in-out delay-150"></path></g><g><defs><linearGradient id="_nwk9bmrnb"><stop offset="5%" stop-color="#d9ff00" stop-opacity="0.6666666666666666"></stop><stop offset="95%" stop-color="#32ded4" stop-opacity="0.6666666666666666"></stop></linearGradient></defs><path d="M 0,500 C 0,500 0,250 0,250 C 89.95128205128205,248.9025641025641 179.9025641025641,247.80512820512823 259,246 C 338.0974358974359,244.19487179487177 406.34102564102557,241.68205128205128 490,233 C 573.6589743589744,224.31794871794872 672.7333333333333,209.4666666666667 758,209 C 843.2666666666667,208.5333333333333 914.7256410256409,222.45128205128208 994,240 C 1073.274358974359,257.5487179487179 1160.3641025641027,278.7282051282051 1236,281 C 1311.6358974358973,283.2717948717949 1375.8179487179486,266.63589743589745 1440,250 C 1440,250 1440,500 1440,500 Z" stroke="none" stroke-width="0" fill="url(#_nwk9bmrnb)" class="transition-all duration-500 ease-in-out delay-150"></path></g><g><defs><linearGradient id="_otge1a76s"><stop offset="5%" stop-color="#d9ff00" stop-opacity="1"></stop><stop offset="95%" stop-color="#32ded4" stop-opacity="1"></stop></linearGradient></defs><path d="M 0,500 C 0,500 0,375 0,375 C 74.94871794871798,357.3461538461538 149.89743589743597,339.6923076923077 233,336 C 316.10256410256403,332.3076923076923 407.35897435897425,342.5769230769231 496,344 C 584.6410256410257,345.4230769230769 670.6666666666667,338 738,336 C 805.3333333333333,334 853.9743589743589,337.4230769230769 936,335 C 1018.0256410256411,332.5769230769231 1133.4358974358975,324.3076923076923 1223,330 C 1312.5641025641025,335.6923076923077 1376.2820512820513,355.3461538461538 1440,375 C 1440,375 1440,500 1440,500 Z" stroke="none" stroke-width="0" fill="url(#_otge1a76s)" class="transition-all duration-500 ease-in-out delay-150"></path></g></svg>