<svg width="100%" height="100%" viewBox="0 0 1440 800" xmlns="http://www.w3.org/2000/svg" class="f-full transition duration-500 ease-in-out delay-150"><g><defs><linearGradient id="_ob0dc0wh9"><stop offset="5%" stop-color="#ff008f" stop-opacity="0.25"></stop><stop offset="95%" stop-color="#1d2acf" stop-opacity="0.25"></stop></linearGradient></defs><path d="M 0,800 C 0,800 0,160 0,160 C 205.7333333333333,164.8 411.4666666666666,169.6 566,178 C 720.5333333333334,186.4 823.8666666666668,198.4 961,196 C 1098.1333333333332,193.6 1269.0666666666666,176.8 1440,160 C 1440,160 1440,800 1440,800 Z" stroke="none" stroke-width="0" fill="url(#_ob0dc0wh9)" class="transition-all duration-500 ease-in-out delay-150"></path></g><g><defs><linearGradient id="_ic1sw964b"><stop offset="5%" stop-color="#ff008f" stop-opacity="0.5"></stop><stop offset="95%" stop-color="#1d2acf" stop-opacity="0.5"></stop></linearGradient></defs><path d="M 0,800 C 0,800 0,320 0,320 C 128.66666666666669,340.5333333333333 257.33333333333337,361.06666666666666 440,351 C 622.6666666666666,340.93333333333334 859.3333333333333,300.2666666666667 1035,290 C 1210.6666666666667,279.7333333333333 1325.3333333333335,299.8666666666667 1440,320 C 1440,320 1440,800 1440,800 Z" stroke="none" stroke-width="0" fill="url(#_ic1sw964b)" class="transition-all duration-500 ease-in-out delay-150"></path></g><g><defs><linearGradient id="_kdoj6wipp"><stop offset="5%" stop-color="#ff008f" stop-opacity="0.75"></stop><stop offset="95%" stop-color="#1d2acf" stop-opacity="0.75"></stop></linearGradient></defs><path d="M 0,800 C 0,800 0,480 0,480 C 128.53333333333336,470.40000000000003 257.0666666666667,460.80000000000007 437,470 C 616.9333333333333,479.19999999999993 848.2666666666667,507.19999999999993 1024,512 C 1199.7333333333333,516.8000000000001 1319.8666666666668,498.40000000000003 1440,480 C 1440,480 1440,800 1440,800 Z" stroke="none" stroke-width="0" fill="url(#_kdoj6wipp)" class="transition-all duration-500 ease-in-out delay-150"></path></g><g><defs><linearGradient id="_o0r6kx36j"><stop offset="5%" stop-color="#ff008f" stop-opacity="1"></stop><stop offset="95%" stop-color="#1d2acf" stop-opacity="1"></stop></linearGradient></defs><path d="M 0,800 C 0,800 0,640 0,640 C 162.13333333333333,633.8666666666667 324.26666666666665,627.7333333333333 465,620 C 605.7333333333333,612.2666666666667 725.0666666666668,602.9333333333334 884,606 C 1042.9333333333332,609.0666666666666 1241.4666666666667,624.5333333333333 1440,640 C 1440,640 1440,800 1440,800 Z" stroke="none" stroke-width="0" fill="url(#_o0r6kx36j)" class="transition-all duration-500 ease-in-out delay-150"></path></g></svg>