<svg viewBox="0 0 1440 500" xmlns="http://www.w3.org/2000/svg"><g><defs><linearGradient id="_n0lvcdwh9"><stop offset="5%" stop-color="#00dbff" stop-opacity="0.5"></stop><stop offset="95%" stop-color="#ff00c9" stop-opacity="0.5"></stop></linearGradient></defs><path d="M 0,500 C 0,500 0,166 0,166 C 45.57750667477332,138.2610034629517 91.15501334954664,110.5220069259034 147,109 C 202.84498665045336,107.4779930740966 268.95745327658676,132.1729757593381 313,136 C 357.04254672341324,139.8270242406619 379.01517354410635,122.78609003674427 417,128 C 454.98482645589365,133.21390996325573 508.98185254698774,160.68266409368476 559,171 C 609.0181474530123,181.31733590631524 655.0574162679426,174.48325358851676 705,188 C 754.9425837320574,201.51674641148324 808.7884823812417,235.38432155224825 854,217 C 899.2115176187583,198.61567844775175 935.7886542070898,127.97946020249015 981,107 C 1026.2113457929102,86.02053979750985 1080.0569007903987,114.69783763779111 1136,130 C 1191.9430992096013,145.3021623622089 1249.9837426313147,147.2291892463454 1301,151 C 1352.0162573686853,154.7708107536546 1396.0081286843426,160.3854053768273 1440,166 C 1440,166 1440,500 1440,500 Z" stroke="none" stroke-width="0" fill="url(#_n0lvcdwh9)" class="transition-all duration-500 ease-in-out"></path></g><g><defs><linearGradient id="_bj0yyr3b0"><stop offset="5%" stop-color="#00dbff" stop-opacity="1"></stop><stop offset="95%" stop-color="#ff00c9" stop-opacity="1"></stop></linearGradient></defs><path d="M 0,500 C 0,500 0,333 0,333 C 42.11661688122868,309.5800047582543 84.23323376245736,286.1600095165085 134,299 C 183.76676623754264,311.8399904834915 241.1836818313992,360.93996669222025 287,384 C 332.8163181686008,407.06003330777975 367.03203891194596,404.08012371461047 414,384 C 460.96796108805404,363.91987628538953 520.6881625208173,326.7395384493378 576,314 C 631.3118374791827,301.2604615506622 682.2153110047847,312.96172248803833 736,328 C 789.7846889952153,343.03827751196167 846.4505934600439,361.41357159850907 890,369 C 933.5494065399561,376.58642840149093 963.9823151550397,373.3839911179254 1009,360 C 1054.0176848449603,346.6160088820746 1113.6201459197973,323.0504639297893 1166,305 C 1218.3798540802027,286.9495360702107 1263.5371011657721,274.41415316291733 1308,280 C 1352.4628988342279,285.58584683708267 1396.231449417114,309.29292341854136 1440,333 C 1440,333 1440,500 1440,500 Z" stroke="none" stroke-width="0" fill="url(#_bj0yyr3b0)" class="transition-all duration-500 ease-in-out"></path></g></svg>