<svg viewBox="0 0 1440 800" xmlns="http://www.w3.org/2000/svg"><g><defs><linearGradient id="_v9hv1qwm1"><stop offset="5%" stop-color="#00ffad" stop-opacity="0.2"></stop><stop offset="95%" stop-color="#ff0066" stop-opacity="0.2"></stop></linearGradient></defs><path d="M 0,800 C 0,800 0,133 0,133 C 287,130 574,127 814,127 C 1054,127 1247,130 1440,133 C 1440,133 1440,800 1440,800 Z" stroke="none" stroke-width="0" fill="url(#_v9hv1qwm1)" class="transition-all duration-500 ease-in-out"></path></g><g><defs><linearGradient id="_f7pnkvr2z"><stop offset="5%" stop-color="#00ffad" stop-opacity="0.4"></stop><stop offset="95%" stop-color="#ff0066" stop-opacity="0.4"></stop></linearGradient></defs><path d="M 0,800 C 0,800 0,266 0,266 C 210,276.5 420,287 660,287 C 900,287 1170,276.5 1440,266 C 1440,266 1440,800 1440,800 Z" stroke="none" stroke-width="0" fill="url(#_f7pnkvr2z)" class="transition-all duration-500 ease-in-out"></path></g><g><defs><linearGradient id="_qwsd4570y"><stop offset="5%" stop-color="#00ffad" stop-opacity="0.6"></stop><stop offset="95%" stop-color="#ff0066" stop-opacity="0.6"></stop></linearGradient></defs><path d="M 0,800 C 0,800 0,400 0,400 C 263.5,422 527,444 767,444 C 1007,444 1223.5,422 1440,400 C 1440,400 1440,800 1440,800 Z" stroke="none" stroke-width="0" fill="url(#_qwsd4570y)" class="transition-all duration-500 ease-in-out"></path></g><g><defs><linearGradient id="_icwd49zmx"><stop offset="5%" stop-color="#00ffad" stop-opacity="0.8"></stop><stop offset="95%" stop-color="#ff0066" stop-opacity="0.8"></stop></linearGradient></defs><path d="M 0,800 C 0,800 0,533 0,533 C 237,547 474,561 714,561 C 954,561 1197,547 1440,533 C 1440,533 1440,800 1440,800 Z" stroke="none" stroke-width="0" fill="url(#_icwd49zmx)" class="transition-all duration-500 ease-in-out"></path></g><g><defs><linearGradient id="_8jtpcvg5o"><stop offset="5%" stop-color="#00ffad" stop-opacity="1"></stop><stop offset="95%" stop-color="#ff0066" stop-opacity="1"></stop></linearGradient></defs><path d="M 0,800 C 0,800 0,666 0,666 C 187,687 374,708 614,708 C 854,708 1147,687 1440,666 C 1440,666 1440,800 1440,800 Z" stroke="none" stroke-width="0" fill="url(#_8jtpcvg5o)" class="transition-all duration-500 ease-in-out"></path></g></svg>