<svg viewBox="0 0 1440 400" xmlns="http://www.w3.org/2000/svg"><g><defs><linearGradient id="_klyqy1c1o"><stop offset="5%" stop-color="#00adff" stop-opacity="0.3333333333333333"></stop><stop offset="95%" stop-color="#01d0ae" stop-opacity="0.3333333333333333"></stop></linearGradient></defs><path d="M 0,400 C 0,400 0,100 0,100 C 83.78205128205127,100.8974358974359 167.56410256410254,101.7948717948718 259,107 C 350.43589743589746,112.2051282051282 449.5256410256411,121.71794871794873 524,119 C 598.4743589743589,116.28205128205127 648.3333333333333,101.33333333333333 705,92 C 761.6666666666667,82.66666666666667 825.1410256410257,78.94871794871796 922,84 C 1018.8589743589743,89.05128205128204 1149.1025641025642,102.87179487179488 1241,107 C 1332.8974358974358,111.12820512820512 1386.4487179487178,105.56410256410257 1440,100 C 1440,100 1440,400 1440,400 Z" stroke="none" stroke-width="0" fill="url(#_klyqy1c1o)" class="transition-all duration-500 ease-in-out"></path></g><g><defs><linearGradient id="_65juxkwc7"><stop offset="5%" stop-color="#00adff" stop-opacity="0.6666666666666666"></stop><stop offset="95%" stop-color="#01d0ae" stop-opacity="0.6666666666666666"></stop></linearGradient></defs><path d="M 0,400 C 0,400 0,200 0,200 C 97.09230769230768,222.0179487179487 194.18461538461537,244.03589743589743 267,234 C 339.81538461538463,223.96410256410257 388.3538461538462,181.87435897435898 449,171 C 509.6461538461538,160.12564102564102 582.4,180.46666666666667 678,181 C 773.6,181.53333333333333 892.0461538461539,162.25897435897434 973,169 C 1053.9538461538461,175.74102564102566 1097.4153846153847,208.4974358974359 1169,218 C 1240.5846153846153,227.5025641025641 1340.2923076923075,213.75128205128203 1440,200 C 1440,200 1440,400 1440,400 Z" stroke="none" stroke-width="0" fill="url(#_65juxkwc7)" class="transition-all duration-500 ease-in-out"></path></g><g><defs><linearGradient id="_sy4q04y1o"><stop offset="5%" stop-color="#00adff" stop-opacity="1"></stop><stop offset="95%" stop-color="#01d0ae" stop-opacity="1"></stop></linearGradient></defs><path d="M 0,400 C 0,400 0,300 0,300 C 95.04102564102564,311.06666666666666 190.08205128205128,322.1333333333333 268,313 C 345.9179487179487,303.8666666666667 406.7128205128205,274.53333333333336 468,272 C 529.2871794871795,269.46666666666664 591.0666666666667,293.73333333333335 684,298 C 776.9333333333333,302.26666666666665 901.0205128205127,286.53333333333336 984,284 C 1066.9794871794873,281.46666666666664 1108.851282051282,292.1333333333333 1178,297 C 1247.148717948718,301.8666666666667 1343.574358974359,300.93333333333334 1440,300 C 1440,300 1440,400 1440,400 Z" stroke="none" stroke-width="0" fill="url(#_sy4q04y1o)" class="transition-all duration-500 ease-in-out"></path></g></svg>