<svg viewBox="0 0 1440 200" xmlns="http://www.w3.org/2000/svg"><g><defs><linearGradient id="_gy9zox81s"><stop offset="5%" stop-color="#0094ff" stop-opacity="0.3333333333333333"></stop><stop offset="95%" stop-color="#ff0008" stop-opacity="0.3333333333333333"></stop></linearGradient></defs><path d="M 0,200 C 0,200 0,50 0,50 C 78.58373205741626,43.004784688995215 157.1674641148325,36.00956937799043 253,32 C 348.8325358851675,27.99043062200957 461.9138755980862,26.966507177033492 554,36 C 646.0861244019138,45.03349282296651 717.1770334928229,64.1244019138756 829,64 C 940.8229665071771,63.875598086124405 1093.3779904306218,44.535885167464116 1202,39 C 1310.6220095693782,33.464114832535884 1375.311004784689,41.73205741626794 1440,50 C 1440,50 1440,200 1440,200 Z" stroke="none" stroke-width="0" fill="url(#_gy9zox81s)" class="transition-all duration-500 ease-in-out"></path></g><g><defs><linearGradient id="_0276zhua7"><stop offset="5%" stop-color="#0094ff" stop-opacity="0.6666666666666666"></stop><stop offset="95%" stop-color="#ff0008" stop-opacity="0.6666666666666666"></stop></linearGradient></defs><path d="M 0,200 C 0,200 0,100 0,100 C 104.6602870813397,107.98086124401914 209.3205741626794,115.96172248803828 311,117 C 412.6794258373206,118.03827751196172 511.37799043062205,112.13397129186603 592,109 C 672.622009569378,105.86602870813397 735.1674641148325,105.5023923444976 824,100 C 912.8325358851675,94.4976076555024 1027.952153110048,83.85645933014355 1135,83 C 1242.047846889952,82.14354066985645 1341.023923444976,91.07177033492823 1440,100 C 1440,100 1440,200 1440,200 Z" stroke="none" stroke-width="0" fill="url(#_0276zhua7)" class="transition-all duration-500 ease-in-out"></path></g><g><defs><linearGradient id="_ixhfjkkmh"><stop offset="5%" stop-color="#0094ff" stop-opacity="1"></stop><stop offset="95%" stop-color="#ff0008" stop-opacity="1"></stop></linearGradient></defs><path d="M 0,200 C 0,200 0,150 0,150 C 105.40669856459331,148.85167464114832 210.81339712918663,147.70334928229664 293,147 C 375.1866028708134,146.29665071770336 434.1531100478468,146.03827751196172 534,145 C 633.8468899521532,143.96172248803828 774.574162679426,142.1435406698565 887,144 C 999.425837320574,145.8564593301435 1083.5502392344497,151.38755980861245 1171,153 C 1258.4497607655503,154.61244019138755 1349.2248803827752,152.3062200956938 1440,150 C 1440,150 1440,200 1440,200 Z" stroke="none" stroke-width="0" fill="url(#_ixhfjkkmh)" class="transition-all duration-500 ease-in-out"></path></g></svg>