<svg viewBox="0 0 1440 700" xmlns="http://www.w3.org/2000/svg"><g><defs><linearGradient id="_m7wluatlx"><stop offset="5%" stop-color="#a3ff00" stop-opacity="0.25"></stop><stop offset="95%" stop-color="#0045ff" stop-opacity="0.25"></stop></linearGradient></defs><path d="M 0,700 C 0,700 0,140 0,140 C 62.01315128605039,130.81802320970684 124.02630257210078,121.63604641941367 166,114 C 207.97369742789922,106.36395358058633 229.9079409976473,100.27383753205214 273,117 C 316.0920590023527,133.72616246794786 380.34193343731005,173.2686034523778 431,187 C 481.65806656268995,200.7313965476222 518.7243252531127,188.65174865843667 561,169 C 603.2756747468873,149.34825134156333 650.7607655502393,122.1244019138756 707,119 C 763.2392344497607,115.8755980861244 828.2326125459304,136.85064368606098 884,136 C 939.7673874540696,135.14935631393902 986.3087842660393,112.47302334188055 1026,122 C 1065.6912157339607,131.52697665811945 1098.5322503899126,173.25726294641677 1146,171 C 1193.4677496100874,168.74273705358323 1255.5622141743106,122.49792487245234 1307,110 C 1358.4377858256894,97.50207512754766 1399.2188929128447,118.75103756377382 1440,140 C 1440,140 1440,700 1440,700 Z" stroke="none" stroke-width="0" fill="url(#_m7wluatlx)" class="transition-all duration-500 ease-in-out"></path></g><g><defs><linearGradient id="_pllh4wcuw"><stop offset="5%" stop-color="#a3ff00" stop-opacity="0.5"></stop><stop offset="95%" stop-color="#0045ff" stop-opacity="0.5"></stop></linearGradient></defs><path d="M 0,700 C 0,700 0,280 0,280 C 46.61734383673901,274.64071215205263 93.23468767347802,269.2814243041053 136,260 C 178.76531232652198,250.71857569589469 217.6785931428269,237.51501493563137 276,247 C 334.3214068571731,256.48498506436863 412.05093975521436,288.65851595336915 457,288 C 501.94906024478564,287.34148404663085 514.117647836316,253.85092125089216 549,256 C 583.882352163684,258.14907874910784 641.4784688995215,295.9377990430622 705,309 C 768.5215311004785,322.0622009569378 837.9684765655978,310.39788257685905 882,317 C 926.0315234344022,323.60211742314095 944.6476248380873,348.47067064950176 981,329 C 1017.3523751619127,309.52932935049824 1071.4410240820537,245.71943482513416 1132,235 C 1192.5589759179463,224.28056517486584 1259.588278833699,266.65159004996167 1312,283 C 1364.411721166301,299.34840995003833 1402.2058605831505,289.67420497501917 1440,280 C 1440,280 1440,700 1440,700 Z" stroke="none" stroke-width="0" fill="url(#_pllh4wcuw)" class="transition-all duration-500 ease-in-out"></path></g><g><defs><linearGradient id="_a0l2kbsmv"><stop offset="5%" stop-color="#a3ff00" stop-opacity="0.75"></stop><stop offset="95%" stop-color="#0045ff" stop-opacity="0.75"></stop></linearGradient></defs><path d="M 0,700 C 0,700 0,420 0,420 C 56.751077215892565,415.9908403605699 113.50215443178513,411.98168072113987 156,405 C 198.49784556821487,398.01831927886013 226.742459488752,388.0641174760105 269,390 C 311.257540511248,391.9358825239895 367.52800761320685,405.76184937481827 424,428 C 480.47199238679315,450.23815062518173 537.1455100584209,480.88848502471654 591,472 C 644.8544899415791,463.11151497528346 695.88995215311,414.6842105263157 745,407 C 794.11004784689,399.3157894736843 841.2946813291389,432.3746728700204 883,448 C 924.7053186708611,463.6253271299796 960.9313225303338,461.81709799360283 1000,451 C 1039.0686774696662,440.18290200639717 1080.9800285495255,420.35693515556846 1126,405 C 1171.0199714504745,389.64306484443154 1219.1485632715642,378.7551613841233 1272,382 C 1324.8514367284358,385.2448386158767 1382.425718364218,402.62241930793834 1440,420 C 1440,420 1440,700 1440,700 Z" stroke="none" stroke-width="0" fill="url(#_a0l2kbsmv)" class="transition-all duration-500 ease-in-out"></path></g><g><defs><linearGradient id="_0m3wpi64h"><stop offset="5%" stop-color="#a3ff00" stop-opacity="1"></stop><stop offset="95%" stop-color="#0045ff" stop-opacity="1"></stop></linearGradient></defs><path d="M 0,700 C 0,700 0,560 0,560 C 61.672698194506864,560.6931983398979 123.34539638901373,561.3863966797959 167,565 C 210.65460361098627,568.6136033202041 236.29111263845203,575.1476116207143 281,576 C 325.70888736154797,576.8523883792857 389.49015305717825,572.023156837347 439,575 C 488.50984694282175,577.976843162653 523.7482751328348,588.7597610298977 563,590 C 602.2517248671652,591.2402389701023 645.5167464114832,582.9377990430622 702,572 C 758.4832535885168,561.0622009569378 828.1847392212325,547.4890427978535 879,541 C 929.8152607787675,534.5109572021465 961.7442967035872,535.1060297655239 1004,552 C 1046.2557032964128,568.8939702344761 1098.8380739644188,602.0868381400512 1145,599 C 1191.1619260355812,595.9131618599488 1230.9034074387375,556.546617674271 1279,544 C 1327.0965925612625,531.453382325729 1383.5482962806313,545.7266911628644 1440,560 C 1440,560 1440,700 1440,700 Z" stroke="none" stroke-width="0" fill="url(#_0m3wpi64h)" class="transition-all duration-500 ease-in-out"></path></g></svg>